<svg
    viewBox="0 0 230 752"
    xmlns="http://www.w3.org/2000/svg"
>
    <path
        d="M228.113 750.615L3.66003 751.988V691.338L0 690.205V679.15H8.53589C9.56566 676.524 10.5707 673.91 11.5632 671.285L0 667.68V656.624H16.9478C33.3372 610.744 46.2404 562.218 56.3768 513.202L48.6101 509.041V497.985H59.4165C105.458 262.172 89.714 129.36 93.25 123.238V117.4H88.7091V108.185H93.25V105.113H88.7091V95.8979H93.5726L107.94 81.7703H114.404V72.6641H109.751V68.1546H114.404V64.1244H109.751V59.6366H114.404V55.6173H109.751V51.1078H114.404V47.0775H109.751V42.568H114.404V1.42691C114.404 0.642649 115.148 0 116.041 0C116.935 0 117.679 0.631757 117.679 1.42691V42.568H122.344V47.0666H117.679V51.0969H122.344V55.5955H117.679V59.6257H122.344V64.1244H117.679V68.1546H122.344V72.6314H117.679V81.7376H122.63L137.009 95.8652H141.873V105.08H137.332V108.152H141.873V117.367H137.332V123.205C140.855 129.338 125.471 262.14 171.736 497.952H182.555V510.642L175.061 514.356C185.222 562.97 198.1 611.082 214.378 656.591H229.949V669.281L220.11 672.124C220.991 674.455 221.897 676.786 222.802 679.117H229.949V691.796L228.113 692.319V750.615ZM67.8531 656.591H162.989C158.795 654.129 140.607 550.356 140.607 550.356H89.5404C89.5404 573.699 67.8531 656.591 67.8531 656.591Z"
        fill="white"
    />
</svg>