<svg width="168" height="442" viewBox="0 0 168 442" fill="none" xmlns="http://www.w3.org/2000/svg">
    <path
        d="M77.835 65.5101C77.865 62.5601 77.465 59.2201 77.475 56.6801C77.5417 25.7401 77.5517 34.8168 77.505 3.9101C77.5056 3.76803 77.5478 3.62954 77.6261 3.51209C77.7044 3.39464 77.8153 3.30348 77.945 3.2501L85.205 0.170097C85.5259 0.0327853 85.876 -0.0227528 86.2236 0.00844535C86.5713 0.0396435 86.9058 0.156614 87.1971 0.348869C87.4885 0.541123 87.7276 0.802659 87.893 1.11004C88.0584 1.41742 88.145 1.76103 88.145 2.1101L88.135 65.3001C88.1356 65.5076 88.1966 65.7101 88.3104 65.8825C88.4241 66.055 88.5857 66.1897 88.775 66.2701L104.125 72.7301C104.294 72.804 104.438 72.9257 104.54 73.0802C104.641 73.2347 104.695 73.4154 104.695 73.6001L104.725 86.1401C104.727 86.2168 104.709 86.2924 104.673 86.3603C104.637 86.4282 104.585 86.4861 104.52 86.5288C104.456 86.5715 104.381 86.5977 104.304 86.6049C104.226 86.6121 104.147 86.6001 104.075 86.5701L83.965 78.0301C83.5194 77.8405 83.0396 77.7436 82.5548 77.7453C82.07 77.747 81.5904 77.8473 81.145 78.0401L60.465 87.0201C60.4 87.0481 60.3291 87.0596 60.2585 87.0536C60.188 87.0476 60.12 87.0242 60.0607 86.9857C60.0013 86.9471 59.9524 86.8945 59.9183 86.8324C59.8841 86.7704 59.8658 86.7009 59.865 86.6301L59.775 73.8601C59.7752 73.692 59.8258 73.5278 59.9203 73.3887C60.0147 73.2497 60.1488 73.1422 60.305 73.0801L77.335 66.2501C77.6617 66.1168 77.8284 65.8701 77.835 65.5101Z"
        fill="#f1f5f9" />
    <path
        d="M82.175 100.94L60.415 110.12C60.3228 110.158 60.2228 110.172 60.1237 110.162C60.0246 110.152 59.9295 110.118 59.8466 110.063C59.7638 110.007 59.6957 109.933 59.6484 109.845C59.601 109.758 59.5759 109.66 59.575 109.56L59.525 96.7001C59.5249 96.5123 59.5835 96.3289 59.6927 96.1749C59.8019 96.0209 59.9564 95.904 60.135 95.8401C67.575 93.1934 74.7684 89.9901 81.715 86.2301C82.0017 86.0701 82.2984 86.0534 82.605 86.1801L104.435 95.4501C104.762 95.5901 104.928 95.8368 104.935 96.1901L105.195 109.53C105.198 109.599 105.183 109.667 105.151 109.729C105.12 109.79 105.073 109.842 105.016 109.881C104.958 109.92 104.891 109.944 104.821 109.951C104.751 109.958 104.68 109.947 104.615 109.92L83.395 100.94C82.9884 100.767 82.5817 100.767 82.175 100.94Z"
        fill="#f1f5f9" />
    <path
        d="M39.945 126.21C54.485 120.48 67.945 115.5 81.375 109.32C81.8056 109.121 82.2964 109.096 82.745 109.25C87.865 111.06 93.555 113.67 97.865 115.34C106.795 118.81 115.315 121.92 124.335 126.41C124.628 126.557 124.778 126.79 124.785 127.11L124.935 138.92C124.936 139.048 124.905 139.174 124.846 139.288C124.787 139.401 124.7 139.498 124.595 139.57C124.489 139.642 124.367 139.687 124.24 139.701C124.113 139.715 123.984 139.698 123.865 139.65C110.612 134.323 97.415 129.18 84.275 124.22C82.6817 123.613 81.255 123.58 79.995 124.12C66.755 129.747 53.4217 135.13 39.995 140.27C39.615 140.41 39.425 140.28 39.425 139.88L39.275 127.21C39.2684 126.723 39.4917 126.39 39.945 126.21Z"
        fill="#f1f5f9" />
    <path
        d="M43.0751 159.54L28.815 154.11C26.6484 153.29 26.6584 152.497 28.845 151.73C45.905 145.79 63.645 139.5 80.505 132.15C80.9333 131.963 81.394 131.862 81.8608 131.854C82.3276 131.845 82.7912 131.929 83.225 132.1C96.4917 137.353 109.952 142.45 123.605 147.39C127.425 148.78 132.915 150.27 137.405 152.15C137.46 152.172 137.506 152.209 137.539 152.258C137.572 152.307 137.589 152.365 137.589 152.424C137.589 152.484 137.572 152.542 137.539 152.593C137.506 152.644 137.46 152.685 137.405 152.71L121.815 159.43C121.726 159.469 121.65 159.534 121.596 159.615C121.543 159.697 121.515 159.793 121.515 159.89L121.555 178.14C121.558 178.516 121.673 178.882 121.885 179.191C122.097 179.501 122.396 179.741 122.745 179.88L131.865 183.48C132.031 183.545 132.173 183.657 132.273 183.801C132.373 183.946 132.426 184.116 132.425 184.29L132.395 198.22C132.395 198.947 132.055 199.183 131.375 198.93L83.225 180.77C82.9384 180.657 82.6484 180.653 82.3551 180.76L32.845 199.18C32.4117 199.34 32.1917 199.187 32.185 198.72L32.065 184.52C32.065 184.06 32.2817 183.753 32.715 183.6L42.7351 180.11C43.1351 179.97 43.3384 179.683 43.345 179.25L43.5451 160.23C43.5517 159.89 43.3951 159.66 43.0751 159.54ZM77.525 147.62C77.526 147.564 77.513 147.508 77.487 147.458C77.4611 147.408 77.4231 147.365 77.3764 147.333C77.3298 147.301 77.276 147.282 77.2199 147.276C77.1638 147.27 77.1071 147.279 77.055 147.3L53.335 157.01C53.272 157.036 53.2182 157.081 53.1807 157.138C53.1433 157.195 53.1239 157.262 53.125 157.33L53.1751 176.06C53.1748 176.115 53.1879 176.17 53.2133 176.219C53.2387 176.268 53.2756 176.31 53.3209 176.341C53.3661 176.373 53.4184 176.393 53.4732 176.399C53.5279 176.406 53.5834 176.4 53.6351 176.38L77.305 167.11C77.3684 167.086 77.4232 167.044 77.4624 166.989C77.5016 166.933 77.5234 166.868 77.525 166.8V147.62ZM89.3651 147.72C89.2658 147.677 89.1573 147.659 89.0494 147.668C88.9415 147.677 88.8376 147.714 88.7472 147.773C88.6568 147.833 88.5827 147.914 88.5317 148.01C88.4807 148.105 88.4543 148.212 88.455 148.32L88.5451 166.67C88.547 166.797 88.5859 166.92 88.6569 167.025C88.728 167.13 88.8281 167.211 88.945 167.26L111.285 176.39C111.383 176.429 111.49 176.444 111.595 176.432C111.7 176.421 111.801 176.384 111.888 176.325C111.976 176.266 112.048 176.186 112.098 176.093C112.148 176 112.174 175.896 112.175 175.79L112.055 158.1C112.054 157.975 112.017 157.852 111.947 157.747C111.878 157.643 111.78 157.56 111.665 157.51L89.3651 147.72Z"
        fill="#f1f5f9" />
    <path fill-rule="evenodd" clip-rule="evenodd"
        d="M70.815 211.97C70.815 211.97 70.815 211.97 70.815 211.97L70.5751 227.16C70.5746 227.214 70.5874 227.267 70.6123 227.315C70.6123 227.315 70.6123 227.315 70.6123 227.315C70.6372 227.363 70.6734 227.404 70.7178 227.434C70.7178 227.434 70.7178 227.434 70.7178 227.434C70.7622 227.465 70.8134 227.484 70.8669 227.49C70.8669 227.49 70.867 227.49 70.867 227.49C70.9205 227.497 70.9748 227.49 71.025 227.47C71.025 227.47 71.025 227.47 71.025 227.47L76.805 225.2C76.8657 225.176 76.9181 225.135 76.9554 225.082C76.9555 225.082 76.9555 225.082 76.9555 225.082C76.9929 225.029 77.0136 224.965 77.0151 224.9L77.025 209.44C77.0252 209.384 77.0114 209.33 76.9847 209.281C76.9831 209.278 76.9813 209.275 76.9796 209.272C76.9532 209.227 76.9166 209.189 76.8726 209.161C76.8667 209.157 76.8608 209.153 76.8547 209.15C76.8122 209.127 76.7651 209.113 76.7165 209.11C76.713 209.109 76.7095 209.109 76.7061 209.109C76.654 209.107 76.6023 209.118 76.555 209.14L71.0051 211.67C71.0015 211.672 70.998 211.673 70.9945 211.675C70.9421 211.702 70.8978 211.743 70.8663 211.792C70.862 211.799 70.8581 211.806 70.8544 211.813C70.8284 211.861 70.8149 211.915 70.815 211.97ZM102.035 230.33L101.795 214.56C101.795 214.557 101.795 214.553 101.795 214.549C101.796 214.496 101.808 214.443 101.832 214.395C101.832 214.395 101.832 214.395 101.832 214.395C101.857 214.343 101.894 214.298 101.94 214.264C101.94 214.264 101.94 214.264 101.94 214.264C101.986 214.23 102.039 214.207 102.096 214.198C102.096 214.198 102.096 214.198 102.096 214.198C102.152 214.188 102.21 214.193 102.265 214.21C102.265 214.21 102.265 214.21 102.265 214.21L107.185 215.84C107.256 215.863 107.317 215.906 107.362 215.965C107.362 215.966 107.362 215.966 107.362 215.966C107.407 216.025 107.432 216.096 107.435 216.17C107.435 216.17 107.435 216.17 107.435 216.17L107.885 232.64C107.885 232.699 107.87 232.758 107.842 232.81C107.84 232.813 107.838 232.816 107.836 232.819C107.808 232.867 107.77 232.908 107.723 232.939C107.717 232.943 107.711 232.947 107.704 232.951C107.66 232.976 107.61 232.992 107.558 232.997C107.554 232.997 107.551 232.998 107.547 232.998C107.492 233.001 107.436 232.992 107.385 232.97L102.245 230.65C102.241 230.648 102.237 230.646 102.234 230.645C102.177 230.616 102.129 230.573 102.094 230.52C102.089 230.513 102.085 230.506 102.081 230.499C102.052 230.447 102.036 230.389 102.035 230.33ZM94.8751 252.57L94.505 237.23C94.5049 237.174 94.489 237.118 94.4589 237.071C94.4289 237.023 94.3859 236.985 94.3351 236.96C94.3351 236.96 94.335 236.96 94.335 236.96L88.895 234.44C88.8493 234.418 88.7988 234.408 88.7482 234.411C88.6975 234.414 88.6485 234.429 88.6055 234.456C88.6002 234.46 88.5949 234.463 88.5898 234.467C88.5539 234.493 88.5241 234.526 88.5026 234.565C88.4995 234.571 88.4966 234.576 88.4939 234.582C88.475 234.622 88.4651 234.666 88.465 234.71L88.535 250.18C88.535 250.184 88.535 250.187 88.5351 250.191C88.5362 250.247 88.5526 250.301 88.5826 250.347C88.5866 250.354 88.5909 250.36 88.5953 250.366C88.6263 250.407 88.6675 250.439 88.715 250.46L94.455 252.85C94.4608 252.853 94.4666 252.855 94.4725 252.857C94.5137 252.872 94.5577 252.878 94.6015 252.874C94.6515 252.87 94.6997 252.853 94.7415 252.825C94.7415 252.825 94.7415 252.825 94.7415 252.825C94.7833 252.797 94.8174 252.759 94.8408 252.714C94.8641 252.67 94.8759 252.62 94.8751 252.57ZM77.035 234.78L77.095 250.06C77.0936 250.125 77.0728 250.188 77.0355 250.242C77.0308 250.249 77.0259 250.255 77.0208 250.261C76.9849 250.305 76.9382 250.339 76.885 250.36L70.645 252.92C70.6386 252.923 70.6321 252.925 70.6255 252.928C70.5794 252.944 70.5302 252.95 70.4814 252.945C70.4779 252.945 70.4745 252.945 70.471 252.944C70.419 252.937 70.3693 252.918 70.3261 252.888C70.3204 252.884 70.3148 252.88 70.3093 252.875C70.271 252.845 70.2399 252.806 70.2183 252.762C70.2152 252.756 70.2124 252.75 70.2097 252.743C70.191 252.698 70.1825 252.649 70.185 252.6L70.625 237.16C70.6253 237.156 70.6255 237.152 70.6259 237.148C70.6312 237.089 70.6523 237.032 70.6872 236.984C70.6873 236.984 70.6873 236.984 70.6873 236.984C70.7245 236.933 70.7758 236.893 70.8349 236.87C70.835 236.87 70.835 236.87 70.835 236.87L76.585 234.48C76.6344 234.461 76.6878 234.454 76.7406 234.459C76.7406 234.459 76.7406 234.459 76.7406 234.459C76.7934 234.465 76.8439 234.483 76.8881 234.513C76.8881 234.513 76.8881 234.513 76.8882 234.513C76.9323 234.542 76.9687 234.582 76.9943 234.628C76.9943 234.628 76.9943 234.628 76.9943 234.629C77.0199 234.675 77.0338 234.727 77.035 234.78C77.035 234.78 77.035 234.78 77.035 234.78ZM102.325 240.17L102.585 256.14C102.584 256.204 102.603 256.267 102.639 256.321C102.639 256.321 102.639 256.321 102.639 256.321C102.674 256.374 102.725 256.416 102.785 256.44L109.875 259.18C109.926 259.199 109.981 259.205 110.034 259.197C110.034 259.197 110.034 259.197 110.034 259.197C110.088 259.188 110.138 259.167 110.181 259.134C110.181 259.134 110.181 259.134 110.181 259.134C110.224 259.101 110.258 259.058 110.28 259.008C110.283 259.002 110.285 258.996 110.287 258.989C110.303 258.945 110.31 258.897 110.305 258.85L108.505 242.43C108.505 242.427 108.504 242.423 108.504 242.42C108.497 242.367 108.476 242.317 108.445 242.274C108.441 242.269 108.437 242.263 108.432 242.258C108.4 242.22 108.36 242.19 108.315 242.17L102.765 239.87C102.759 239.868 102.753 239.865 102.747 239.863C102.703 239.849 102.657 239.844 102.611 239.849C102.608 239.849 102.604 239.849 102.601 239.85C102.552 239.857 102.506 239.875 102.465 239.902C102.459 239.906 102.454 239.91 102.449 239.914C102.413 239.942 102.383 239.978 102.361 240.019C102.361 240.019 102.361 240.019 102.361 240.019C102.337 240.065 102.324 240.117 102.325 240.17C102.325 240.17 102.325 240.17 102.325 240.17ZM55.165 259.38L56.085 242.8C56.088 242.742 56.1075 242.685 56.1411 242.638C56.1411 242.638 56.1411 242.638 56.1411 242.638C56.1747 242.59 56.2211 242.553 56.275 242.53C56.275 242.53 56.275 242.53 56.275 242.53L62.005 240.1C62.0525 240.08 62.1042 240.072 62.1554 240.077C62.2066 240.082 62.2557 240.1 62.2984 240.129C62.3037 240.132 62.3089 240.136 62.314 240.14C62.3496 240.168 62.3789 240.202 62.3997 240.242C62.4027 240.248 62.4055 240.254 62.4081 240.26C62.4264 240.301 62.4356 240.345 62.435 240.39L62.015 256.79C62.0139 256.85 61.9953 256.909 61.9616 256.958C61.9279 257.008 61.8804 257.047 61.825 257.07L55.595 259.69C55.546 259.711 55.4924 259.719 55.4395 259.713C55.3865 259.707 55.336 259.687 55.2928 259.656C55.2495 259.625 55.2151 259.583 55.1927 259.535C55.1703 259.486 55.1608 259.433 55.165 259.38ZM76.725 259.94L70.465 262.58C70.4425 262.59 70.4213 262.601 70.4014 262.613C70.2622 262.695 70.1867 262.821 70.1751 262.99L69.255 280.27C69.2542 280.279 69.254 280.288 69.2544 280.295C69.2573 280.349 69.2909 280.368 69.3549 280.35C69.355 280.35 69.355 280.35 69.355 280.35L76.555 278.06C76.6804 278.02 76.7896 277.94 76.8669 277.832C76.8669 277.832 76.8669 277.832 76.867 277.832C76.9443 277.724 76.9856 277.594 76.9851 277.46L77.0151 260.13C77.0144 260.096 77.0054 260.062 76.9888 260.033C76.9878 260.031 76.9867 260.029 76.9857 260.027C76.9693 260 76.947 259.976 76.9202 259.959C76.9166 259.956 76.913 259.954 76.9093 259.952C76.8834 259.937 76.8547 259.928 76.8249 259.925C76.8228 259.925 76.8206 259.925 76.8185 259.925C76.7866 259.923 76.7546 259.928 76.725 259.94ZM88.955 278.31L88.8651 260.68C88.865 260.676 88.865 260.672 88.865 260.667C88.8658 260.603 88.8813 260.54 88.9105 260.482C88.9125 260.478 88.9145 260.474 88.9165 260.471C88.9474 260.414 88.991 260.366 89.0437 260.329C89.0508 260.324 89.0579 260.319 89.0652 260.314C89.1163 260.283 89.1736 260.263 89.2333 260.256C89.2333 260.256 89.2333 260.256 89.2334 260.256C89.3016 260.247 89.3708 260.256 89.435 260.28C89.435 260.28 89.435 260.28 89.4351 260.28L95.395 262.5C95.4725 262.53 95.5395 262.582 95.5876 262.649C95.6357 262.717 95.6626 262.797 95.6651 262.88L96.445 280.98C96.4487 281.051 96.4345 281.121 96.4036 281.185C96.4035 281.185 96.4035 281.185 96.4035 281.185C96.3726 281.249 96.326 281.304 96.2681 281.345C96.2608 281.35 96.2535 281.355 96.2459 281.36C96.1933 281.392 96.134 281.412 96.0723 281.419C96.0679 281.42 96.0635 281.42 96.0591 281.421C95.993 281.426 95.9265 281.416 95.8651 281.39L89.215 278.7C89.2102 278.698 89.2054 278.696 89.2007 278.694C89.1297 278.661 89.069 278.61 89.0256 278.545C89.0198 278.536 89.0144 278.527 89.0092 278.518C88.9735 278.455 88.9547 278.383 88.955 278.31ZM103.195 266.28L104.085 283.57C104.088 283.631 104.109 283.69 104.144 283.739C104.18 283.789 104.228 283.827 104.285 283.85L112.835 287.25C112.887 287.272 112.944 287.279 113 287.272C113.056 287.265 113.109 287.242 113.154 287.208C113.198 287.173 113.233 287.128 113.255 287.075C113.276 287.023 113.283 286.966 113.275 286.91L110.935 268.9C110.928 268.843 110.906 268.788 110.871 268.742C110.836 268.697 110.789 268.661 110.735 268.64L103.625 265.96C103.575 265.942 103.521 265.936 103.469 265.944C103.416 265.951 103.366 265.972 103.323 266.004C103.281 266.035 103.247 266.077 103.224 266.126C103.202 266.174 103.192 266.227 103.195 266.28ZM51.775 286.39C51.775 286.39 51.775 286.39 51.775 286.39L53.9451 269.16C53.9455 269.156 53.9459 269.152 53.9465 269.148C53.9547 269.089 53.978 269.032 54.0143 268.984C54.0144 268.984 54.0144 268.984 54.0144 268.984C54.0532 268.933 54.1053 268.894 54.165 268.87C54.165 268.87 54.165 268.87 54.1651 268.87L61.155 266.15C61.2093 266.128 61.2682 266.12 61.3263 266.127C61.3263 266.127 61.3263 266.127 61.3264 266.127C61.3845 266.134 61.4399 266.155 61.4876 266.189C61.4876 266.189 61.4877 266.189 61.4877 266.189C61.5354 266.223 61.5739 266.268 61.5996 266.321C61.5997 266.321 61.5997 266.321 61.5997 266.321C61.6254 266.373 61.6376 266.432 61.6351 266.49C61.6351 266.49 61.6351 266.49 61.6351 266.49L61.1651 283.14C61.1648 283.144 61.1645 283.149 61.1641 283.153C61.1583 283.217 61.135 283.278 61.0966 283.33C61.0915 283.337 61.0862 283.343 61.0806 283.35C61.0416 283.395 60.9915 283.43 60.935 283.45L52.245 286.76C52.238 286.763 52.2309 286.765 52.2237 286.767C52.1736 286.782 52.1206 286.786 52.0686 286.778C52.0649 286.777 52.0612 286.777 52.0575 286.776C52.0023 286.766 51.9503 286.742 51.906 286.707C51.9001 286.703 51.8943 286.698 51.8888 286.693C51.8498 286.658 51.8191 286.614 51.799 286.566C51.7961 286.559 51.7935 286.552 51.7911 286.545C51.7742 286.495 51.7687 286.442 51.775 286.39ZM68.9851 289.64L67.6651 307.72C67.6649 307.723 67.6647 307.726 67.6647 307.729C67.6634 307.776 67.6729 307.822 67.6924 307.864C67.6924 307.864 67.6925 307.864 67.6925 307.864C67.7133 307.909 67.7449 307.948 67.7845 307.977C67.7845 307.977 67.7845 307.977 67.7846 307.977C67.8242 308.007 67.8705 308.027 67.9194 308.034C67.9684 308.041 68.0184 308.037 68.065 308.02C68.065 308.02 68.065 308.02 68.065 308.02L76.6351 305.04C76.6931 305.02 76.7434 304.982 76.7791 304.932C76.7792 304.932 76.7792 304.932 76.7792 304.932C76.815 304.882 76.8344 304.822 76.835 304.76L76.7951 287.11C76.7946 287.062 76.7828 287.015 76.7605 286.973C76.7591 286.971 76.7577 286.968 76.7562 286.965C76.7342 286.926 76.7038 286.893 76.6671 286.867C76.6622 286.864 76.6572 286.86 76.6522 286.857C76.6167 286.836 76.577 286.821 76.5356 286.816C76.5297 286.815 76.5237 286.814 76.5178 286.814C76.4762 286.811 76.4344 286.816 76.395 286.83L69.185 289.37C69.1815 289.371 69.178 289.373 69.1745 289.374C69.1225 289.395 69.0771 289.429 69.0437 289.474C69.0393 289.48 69.035 289.487 69.0311 289.493C69.0032 289.537 68.9873 289.588 68.9851 289.64ZM89.005 305.14L88.975 287.79C88.9756 287.741 88.9877 287.693 89.0105 287.65C89.0333 287.606 89.066 287.569 89.106 287.54C89.146 287.512 89.1922 287.494 89.2407 287.487C89.2892 287.48 89.3386 287.484 89.385 287.5L96.655 289.91C96.7142 289.93 96.7659 289.968 96.8033 290.018C96.8408 290.068 96.8623 290.128 96.8651 290.19L97.885 308.04C97.8877 308.091 97.878 308.141 97.8566 308.187C97.8353 308.233 97.8029 308.273 97.7625 308.304C97.722 308.335 97.6746 308.355 97.6245 308.363C97.5743 308.371 97.523 308.367 97.475 308.35L89.215 305.43C89.1543 305.409 89.1015 305.37 89.0639 305.318C89.0263 305.267 89.0057 305.204 89.005 305.14ZM59.515 292.94L52.165 295.83C51.836 295.96 51.5486 296.177 51.3337 296.457C51.3336 296.457 51.3336 296.457 51.3336 296.457C51.1187 296.737 50.9844 297.07 50.945 297.42C50.945 297.42 50.945 297.42 50.945 297.42L49.015 313.82C49.0033 313.911 49.015 314.004 49.0489 314.089C49.051 314.094 49.0532 314.099 49.0555 314.105C49.0898 314.183 49.1424 314.253 49.209 314.307C49.2179 314.315 49.227 314.321 49.2362 314.328C49.3013 314.375 49.376 314.406 49.455 314.421C49.4663 314.423 49.4776 314.424 49.4889 314.426C49.5684 314.435 49.6491 314.426 49.725 314.4L57.925 311.66C57.9572 311.649 57.9891 311.638 58.0208 311.626C58.4955 311.446 58.9103 311.135 59.2165 310.729C59.2573 310.674 59.296 310.619 59.3324 310.562C59.5875 310.164 59.7339 309.705 59.755 309.23L60.505 293.64C60.5071 293.594 60.5078 293.55 60.507 293.507C60.4957 292.873 60.1651 292.684 59.5151 292.94C59.5151 292.94 59.5151 292.94 59.515 292.94ZM106.215 311.25L105.065 293.6C105.062 293.548 105.071 293.496 105.093 293.449C105.115 293.402 105.148 293.361 105.19 293.33C105.232 293.299 105.281 293.28 105.332 293.272C105.332 293.272 105.333 293.272 105.333 293.272C105.384 293.265 105.436 293.272 105.485 293.29L114.165 296.43C114.168 296.431 114.172 296.433 114.175 296.434C114.224 296.454 114.267 296.486 114.3 296.527C114.304 296.533 114.308 296.538 114.312 296.544C114.34 296.585 114.359 296.631 114.365 296.68L116.695 314.56C116.696 314.567 116.696 314.573 116.697 314.58C116.699 314.626 116.692 314.671 116.674 314.714C116.673 314.717 116.672 314.72 116.671 314.723C116.651 314.768 116.62 314.808 116.582 314.839C116.577 314.843 116.571 314.847 116.566 314.851C116.528 314.877 116.485 314.895 116.44 314.903C116.434 314.904 116.427 314.905 116.42 314.906C116.375 314.911 116.329 314.905 116.285 314.89C116.285 314.89 116.285 314.89 116.285 314.89L106.425 311.53C106.366 311.51 106.314 311.473 106.277 311.423C106.277 311.423 106.277 311.423 106.277 311.423C106.239 311.373 106.218 311.313 106.215 311.25C106.215 311.25 106.215 311.25 106.215 311.25ZM67.005 318.42L65.785 338.59C65.7819 338.644 65.7923 338.699 65.8152 338.748C65.8381 338.798 65.8729 338.84 65.9165 338.873C65.96 338.906 66.011 338.927 66.0648 338.935C66.1187 338.944 66.1737 338.938 66.225 338.92L76.455 335.41C76.5192 335.387 76.5748 335.345 76.6142 335.29C76.6536 335.234 76.6748 335.168 76.675 335.1L76.725 315.28C76.7251 315.277 76.7252 315.273 76.7252 315.27C76.725 315.22 76.7134 315.17 76.6912 315.125C76.6897 315.122 76.6882 315.119 76.6867 315.117C76.6632 315.072 76.6299 315.034 76.5893 315.004C76.5838 315 76.5783 314.997 76.5727 314.993C76.5333 314.968 76.489 314.951 76.4426 314.945C76.436 314.944 76.4293 314.943 76.4227 314.942C76.3762 314.938 76.3293 314.944 76.2851 314.96C76.2851 314.96 76.2851 314.96 76.285 314.96L67.225 318.13C67.164 318.152 67.1106 318.19 67.0714 318.242C67.0323 318.294 67.0092 318.356 67.005 318.42ZM89.395 335.64L89.295 315.42C89.2957 315.37 89.3081 315.32 89.3313 315.276C89.3313 315.276 89.3314 315.276 89.3314 315.276C89.3546 315.231 89.3881 315.193 89.429 315.164C89.429 315.164 89.429 315.164 89.429 315.164C89.4699 315.134 89.5171 315.115 89.5668 315.108C89.5668 315.108 89.5668 315.108 89.5668 315.108C89.6165 315.1 89.6673 315.104 89.715 315.12L98.655 318.01C98.6589 318.011 98.6627 318.013 98.6665 318.014C98.7235 318.035 98.7735 318.072 98.8103 318.121C98.8152 318.127 98.8199 318.134 98.8243 318.141C98.8549 318.188 98.8726 318.243 98.8751 318.3L100.135 338.83C100.135 338.833 100.136 338.837 100.136 338.84C100.138 338.889 100.129 338.939 100.109 338.984C100.108 338.987 100.107 338.99 100.105 338.993C100.084 339.038 100.053 339.077 100.014 339.108C100.009 339.112 100.003 339.116 99.9979 339.12C99.9599 339.146 99.9166 339.164 99.871 339.172C99.8645 339.173 99.8579 339.174 99.8514 339.175C99.8055 339.18 99.7591 339.175 99.7152 339.16C99.7151 339.16 99.7151 339.16 99.715 339.16L89.6151 335.94C89.5518 335.919 89.4965 335.879 89.4571 335.826C89.457 335.825 89.457 335.825 89.457 335.825C89.4176 335.772 89.3959 335.707 89.395 335.64C89.395 335.64 89.395 335.64 89.395 335.64ZM48.4551 324.78L44.615 346.2C44.6023 346.26 44.6058 346.321 44.6251 346.379C44.6251 346.379 44.6251 346.379 44.6252 346.379C44.6445 346.437 44.6789 346.488 44.7248 346.528C44.7248 346.528 44.7248 346.528 44.7249 346.528C44.7708 346.568 44.8265 346.595 44.8863 346.606C44.8864 346.606 44.8864 346.606 44.8865 346.606C44.9463 346.616 45.008 346.611 45.065 346.59L57.445 342.39C57.449 342.389 57.453 342.387 57.4569 342.386C57.5157 342.363 57.5672 342.325 57.6056 342.275C57.6107 342.268 57.6155 342.262 57.6201 342.255C57.6522 342.206 57.6712 342.149 57.6751 342.09L58.865 321.33C58.8652 321.327 58.8653 321.323 58.8654 321.32C58.8667 321.268 58.8559 321.216 58.8339 321.168C58.8325 321.165 58.8309 321.162 58.8294 321.159C58.806 321.112 58.7722 321.072 58.7305 321.04C58.7249 321.036 58.7193 321.032 58.7135 321.028C58.673 321.001 58.6272 320.984 58.579 320.976C58.5722 320.975 58.5653 320.974 58.5584 320.973C58.5101 320.969 58.4612 320.974 58.4152 320.99C58.4151 320.99 58.4151 320.99 58.415 320.99L48.665 324.52C48.6107 324.542 48.5628 324.577 48.526 324.622C48.526 324.622 48.5259 324.622 48.5259 324.623C48.4891 324.668 48.4648 324.722 48.4551 324.78C48.4551 324.78 48.4551 324.78 48.4551 324.78ZM117.185 324.74C117.365 324.807 117.472 324.937 117.505 325.13L121.245 345.77C121.266 345.886 121.257 346.006 121.217 346.117C121.217 346.117 121.217 346.117 121.217 346.117C121.177 346.229 121.108 346.327 121.018 346.403C121.018 346.403 121.018 346.403 121.018 346.404C120.927 346.48 120.819 346.531 120.702 346.551C120.702 346.551 120.702 346.551 120.702 346.551C120.586 346.572 120.466 346.561 120.355 346.52L110.805 343.07C110.774 343.059 110.744 343.048 110.713 343.036C110.258 342.855 109.859 342.555 109.559 342.166C109.519 342.114 109.481 342.061 109.444 342.007C109.191 341.626 109.037 341.188 108.995 340.73L107.145 321.49C107.145 321.488 107.145 321.486 107.144 321.484C107.141 321.45 107.147 321.417 107.16 321.386C107.161 321.384 107.162 321.382 107.163 321.38C107.177 321.35 107.198 321.323 107.225 321.303C107.229 321.3 107.233 321.297 107.237 321.295C107.263 321.277 107.293 321.265 107.326 321.26C107.33 321.26 107.335 321.259 107.339 321.259C107.371 321.256 107.404 321.26 107.435 321.27C107.435 321.27 107.435 321.27 107.435 321.27L117.185 324.74ZM65.0751 349.17L63.625 371.18C63.6246 371.185 63.6243 371.19 63.6241 371.195C63.6203 371.269 63.634 371.342 63.664 371.41C63.666 371.414 63.6681 371.419 63.6703 371.423C63.7024 371.49 63.7498 371.548 63.8086 371.593C63.8164 371.599 63.8245 371.604 63.8326 371.61C63.8898 371.648 63.9548 371.673 64.023 371.683C64.023 371.683 64.0231 371.683 64.0232 371.683C64.0915 371.694 64.161 371.689 64.227 371.669C64.2364 371.667 64.2458 371.663 64.255 371.66L76.225 367.33C76.3155 367.297 76.3937 367.238 76.4492 367.159C76.4492 367.159 76.4492 367.159 76.4493 367.159C76.5047 367.08 76.5346 366.986 76.535 366.89C76.535 366.89 76.535 366.89 76.535 366.89V345.23C76.5353 345.154 76.517 345.078 76.4815 345.01C76.4815 345.01 76.4815 345.01 76.4814 345.01C76.4459 344.942 76.3944 344.884 76.3313 344.841C76.2682 344.798 76.1955 344.77 76.1195 344.761C76.11 344.76 76.1005 344.759 76.0909 344.759C76.0243 344.755 75.9575 344.766 75.895 344.79L65.375 348.76C65.3698 348.762 65.3646 348.764 65.3594 348.766C65.282 348.8 65.2147 348.853 65.1649 348.921C65.1582 348.93 65.1519 348.939 65.146 348.949C65.1043 349.015 65.0798 349.091 65.0751 349.17ZM89.535 367.39L89.3051 345.86C89.3053 345.806 89.3184 345.753 89.3432 345.705C89.3432 345.705 89.3432 345.705 89.3433 345.705C89.3681 345.657 89.404 345.616 89.4479 345.585C89.4479 345.585 89.448 345.585 89.448 345.585C89.4919 345.553 89.5426 345.533 89.596 345.525C89.596 345.525 89.5961 345.525 89.5961 345.525C89.6495 345.518 89.704 345.523 89.755 345.54L101.175 349.44C101.179 349.441 101.183 349.443 101.187 349.444C101.246 349.467 101.297 349.505 101.336 349.555C101.341 349.562 101.346 349.569 101.35 349.576C101.382 349.625 101.401 349.681 101.405 349.74L102.895 371.18C102.895 371.184 102.895 371.187 102.896 371.19C102.898 371.242 102.888 371.294 102.867 371.342C102.866 371.345 102.865 371.348 102.863 371.351C102.841 371.398 102.808 371.439 102.768 371.471C102.762 371.476 102.757 371.48 102.751 371.484C102.711 371.512 102.666 371.531 102.619 371.54C102.612 371.541 102.605 371.542 102.598 371.543C102.55 371.549 102.501 371.544 102.455 371.53C102.455 371.53 102.455 371.53 102.455 371.53L89.775 367.71C89.7064 367.689 89.6463 367.647 89.6032 367.589C89.6031 367.589 89.6031 367.589 89.603 367.589C89.56 367.532 89.5361 367.462 89.535 367.39C89.535 367.39 89.535 367.39 89.535 367.39ZM43.5451 356.38L40.3851 379.12C40.3842 379.126 40.3836 379.133 40.3832 379.139C40.3804 379.184 40.3876 379.229 40.4045 379.27C40.4045 379.271 40.4045 379.271 40.4045 379.271C40.4238 379.318 40.455 379.36 40.4951 379.392C40.4951 379.392 40.4952 379.392 40.4952 379.392C40.5353 379.424 40.583 379.446 40.6337 379.454C40.6338 379.454 40.6338 379.454 40.6339 379.454C40.6846 379.463 40.7367 379.458 40.785 379.44L54.685 374.16C54.7381 374.139 54.7842 374.104 54.8179 374.058C54.8515 374.012 54.8713 373.957 54.875 373.9C54.875 373.9 54.875 373.9 54.875 373.9L56.345 352.59C56.349 352.541 56.3408 352.492 56.3212 352.447C56.32 352.444 56.3187 352.441 56.3174 352.438C56.2978 352.397 56.2688 352.36 56.2327 352.331C56.2279 352.327 56.2229 352.324 56.2179 352.32C56.1827 352.296 56.1426 352.279 56.1002 352.271C56.0942 352.27 56.0881 352.269 56.082 352.268C56.0394 352.263 55.9961 352.267 55.9551 352.28L43.755 356.13C43.7516 356.131 43.7481 356.132 43.7447 356.133C43.6935 356.151 43.648 356.182 43.613 356.224C43.6084 356.23 43.6039 356.235 43.5997 356.241C43.5701 356.282 43.5513 356.33 43.5451 356.38ZM111.999 375.014C111.963 374.97 111.941 374.916 111.935 374.86L109.715 353C109.714 352.994 109.714 352.988 109.713 352.981C109.711 352.938 109.718 352.894 109.735 352.853C109.736 352.85 109.737 352.847 109.739 352.844C109.758 352.802 109.786 352.764 109.823 352.734C109.828 352.73 109.833 352.726 109.838 352.722C109.873 352.697 109.914 352.679 109.957 352.671C109.963 352.67 109.969 352.669 109.976 352.668C110.019 352.663 110.063 352.667 110.105 352.68L121.755 356.01C121.758 356.011 121.762 356.012 121.765 356.013C121.814 356.029 121.857 356.058 121.892 356.096C121.897 356.101 121.901 356.106 121.906 356.111C121.935 356.149 121.956 356.193 121.965 356.24C121.965 356.24 121.965 356.24 121.965 356.24L126.055 379.32C126.065 379.371 126.061 379.424 126.044 379.474C126.044 379.474 126.044 379.474 126.044 379.474C126.026 379.523 125.997 379.567 125.957 379.602C125.957 379.602 125.957 379.602 125.957 379.602C125.918 379.636 125.87 379.66 125.819 379.67C125.819 379.67 125.819 379.67 125.819 379.67C125.768 379.68 125.715 379.677 125.665 379.66C125.665 379.66 125.665 379.66 125.665 379.66L112.135 375.11C112.081 375.092 112.034 375.058 111.999 375.014C111.999 375.014 111.999 375.014 111.999 375.014ZM63.025 381.1C63.025 381.1 63.025 381.1 63.025 381.1L61.315 402.13C61.3108 402.184 61.3199 402.238 61.3416 402.288C61.3633 402.338 61.3968 402.381 61.4393 402.415C61.4818 402.448 61.532 402.471 61.5853 402.481C61.6385 402.49 61.6933 402.487 61.7449 402.47C61.7449 402.47 61.745 402.47 61.745 402.47L76.255 397.87C76.3211 397.849 76.3788 397.808 76.4201 397.752C76.4252 397.745 76.4301 397.738 76.4347 397.731C76.4667 397.68 76.4842 397.621 76.4851 397.56L76.495 377.11C76.4951 377.107 76.4951 377.104 76.495 377.1C76.4944 377.051 76.4829 377.003 76.4612 376.959C76.4597 376.956 76.4583 376.953 76.4567 376.95C76.4338 376.907 76.4015 376.869 76.3621 376.84C76.3568 376.836 76.3515 376.832 76.346 376.829C76.3078 376.804 76.2648 376.787 76.2196 376.779C76.2131 376.778 76.2066 376.777 76.2002 376.776C76.1547 376.772 76.1087 376.776 76.065 376.79L63.255 380.81C63.2511 380.811 63.2472 380.813 63.2433 380.814C63.1853 380.835 63.1341 380.871 63.0957 380.92C63.0956 380.92 63.0956 380.92 63.0956 380.92C63.0546 380.971 63.03 381.034 63.025 381.1ZM89.7851 397.28L89.715 377.79C89.7145 377.741 89.7255 377.693 89.747 377.65C89.747 377.65 89.747 377.65 89.747 377.65C89.7685 377.606 89.8 377.568 89.8389 377.539C89.8389 377.539 89.839 377.539 89.839 377.539C89.8779 377.51 89.9232 377.49 89.9711 377.481C89.9711 377.481 89.9712 377.481 89.9712 377.481C90.0191 377.473 90.0684 377.476 90.1149 377.49C90.115 377.49 90.115 377.49 90.1151 377.49L103.395 381.46C103.454 381.478 103.507 381.513 103.546 381.561C103.546 381.561 103.546 381.561 103.547 381.561C103.586 381.609 103.61 381.668 103.615 381.73C103.615 381.73 103.615 381.73 103.615 381.73L105.655 402.59C105.66 402.642 105.651 402.693 105.63 402.741C105.629 402.744 105.628 402.747 105.626 402.75C105.606 402.793 105.575 402.832 105.537 402.861C105.529 402.867 105.522 402.873 105.514 402.878C105.508 402.882 105.502 402.885 105.495 402.889L105.495 402.889C105.491 402.891 105.488 402.893 105.484 402.895C105.484 402.895 105.483 402.895 105.483 402.895C105.456 402.908 105.427 402.918 105.397 402.923C105.391 402.924 105.384 402.925 105.378 402.925C105.333 402.93 105.288 402.925 105.245 402.91L89.9951 397.57C89.9913 397.569 89.9875 397.567 89.9838 397.566C89.9278 397.544 89.8792 397.507 89.844 397.458C89.8393 397.452 89.8348 397.445 89.8307 397.439C89.8015 397.391 89.7857 397.336 89.7851 397.28ZM34.8958 410.305C34.8871 410.278 34.7039 410.292 34.5244 410.305C34.3453 410.319 34.1699 410.332 34.175 410.305L38.795 389.3C38.8062 389.243 38.8325 389.189 38.8712 389.145C38.8712 389.145 38.8712 389.145 38.8713 389.145C38.9099 389.101 38.9595 389.069 39.015 389.05L53.145 384.3C53.1451 384.3 53.1451 384.3 53.1452 384.3C53.1964 384.282 53.2514 384.277 53.3052 384.285C53.3052 384.285 53.3053 384.285 53.3054 384.285C53.3524 384.292 53.3973 384.309 53.4369 384.335C53.4426 384.339 53.4481 384.343 53.4536 384.347C53.4944 384.378 53.5276 384.417 53.5504 384.463C53.552 384.466 53.5535 384.469 53.5549 384.472C53.5764 384.518 53.5868 384.569 53.5854 384.62C53.5854 384.623 53.5852 384.627 53.585 384.63L52.165 405.57C52.1601 405.629 52.1395 405.685 52.1057 405.733C52.1009 405.74 52.0958 405.746 52.0904 405.753C52.0502 405.801 51.997 405.837 51.9371 405.857C51.9331 405.858 51.9291 405.859 51.925 405.86L35.295 410.52C35.2478 410.533 35.1985 410.535 35.1505 410.526C35.1437 410.525 35.1369 410.523 35.1301 410.522C35.0759 410.508 35.0259 410.481 34.9849 410.444C34.9849 410.443 34.9849 410.443 34.9848 410.443C34.9439 410.405 34.9133 410.358 34.8958 410.305ZM114.755 405.61C114.755 405.61 114.755 405.61 114.755 405.61L112.625 384.87C112.624 384.864 112.624 384.858 112.623 384.851C112.621 384.808 112.628 384.764 112.645 384.723C112.646 384.72 112.647 384.717 112.649 384.714C112.668 384.672 112.696 384.634 112.733 384.604C112.738 384.6 112.743 384.596 112.748 384.592C112.783 384.567 112.824 384.549 112.867 384.541C112.873 384.54 112.879 384.539 112.886 384.538C112.929 384.533 112.973 384.537 113.015 384.55L126.955 389.13C126.958 389.131 126.961 389.132 126.965 389.134C127.013 389.152 127.056 389.182 127.089 389.222C127.093 389.227 127.097 389.233 127.101 389.238C127.129 389.277 127.148 389.322 127.155 389.37C127.155 389.37 127.155 389.37 127.155 389.37L130.985 410.56C130.986 410.567 130.987 410.573 130.988 410.579C130.993 410.625 130.989 410.671 130.974 410.714C130.974 410.714 130.974 410.714 130.974 410.714C130.956 410.763 130.927 410.807 130.887 410.842C130.887 410.842 130.887 410.842 130.887 410.842C130.848 410.876 130.8 410.9 130.749 410.91C130.749 410.91 130.749 410.91 130.749 410.91C130.698 410.92 130.645 410.917 130.595 410.9C130.595 410.9 130.595 410.9 130.595 410.9L114.965 405.86C114.91 405.843 114.86 405.811 114.823 405.766C114.823 405.766 114.823 405.766 114.823 405.766C114.786 405.722 114.762 405.668 114.755 405.61ZM94.3151 227.27L94.005 211.7C94.0051 211.696 94.005 211.692 94.0049 211.689C94.0036 211.631 93.9861 211.575 93.9543 211.526C93.9501 211.52 93.9457 211.513 93.941 211.507C93.9082 211.465 93.8649 211.431 93.8151 211.41L88.655 209.42C88.6081 209.402 88.5575 209.396 88.5077 209.402C88.4579 209.408 88.4103 209.426 88.369 209.455C88.3689 209.455 88.3689 209.455 88.3689 209.455C88.3276 209.483 88.2939 209.521 88.2705 209.566C88.2705 209.566 88.2705 209.566 88.2705 209.566C88.2472 209.61 88.235 209.66 88.235 209.71L88.3151 224.91C88.3153 224.969 88.3324 225.027 88.3643 225.076C88.3961 225.126 88.4415 225.165 88.495 225.19C88.495 225.19 88.495 225.19 88.4951 225.19L93.885 227.56C93.9325 227.58 93.9841 227.588 94.0353 227.583C94.0866 227.578 94.1357 227.56 94.1784 227.531C94.1837 227.528 94.1889 227.524 94.194 227.52C94.2296 227.493 94.2589 227.458 94.2797 227.418C94.2827 227.412 94.2855 227.406 94.2881 227.401C94.3064 227.36 94.3157 227.315 94.3151 227.27ZM63.185 214.78C63.185 214.78 63.185 214.78 63.185 214.78L62.785 230.44C62.7829 230.518 62.7568 230.593 62.7103 230.656C62.6637 230.719 62.5991 230.765 62.525 230.79L57.115 232.63C57.1076 232.633 57.1001 232.635 57.0925 232.637C57.0396 232.651 56.9842 232.654 56.93 232.645C56.9261 232.644 56.9222 232.643 56.9184 232.642C56.8608 232.631 56.8066 232.606 56.7602 232.57C56.754 232.565 56.748 232.56 56.7421 232.555C56.7011 232.518 56.6683 232.473 56.6461 232.423C56.6429 232.416 56.64 232.409 56.6373 232.401C56.6184 232.35 56.6107 232.295 56.615 232.24L57.6051 216.9C57.6053 216.896 57.6057 216.892 57.6061 216.887C57.6125 216.824 57.6348 216.763 57.6711 216.71C57.6711 216.71 57.6711 216.71 57.6711 216.71C57.7098 216.654 57.763 216.609 57.825 216.58C57.825 216.58 57.825 216.58 57.8251 216.58L62.655 214.43C62.7129 214.405 62.776 214.395 62.8387 214.401C62.8388 214.401 62.8388 214.401 62.8388 214.401C62.9015 214.406 62.9619 214.427 63.0145 214.462C63.067 214.497 63.1101 214.544 63.1399 214.6C63.1399 214.6 63.1399 214.6 63.1399 214.6C63.1697 214.655 63.1852 214.717 63.185 214.78ZM24.485 212.42L46.365 221.2C46.6717 221.327 46.8184 221.557 46.805 221.89C45.955 241.24 43.675 260.73 41.135 279.92C38.9284 296.573 36.6084 313.207 34.175 329.82C33.6571 333.337 32.965 337.025 32.2692 340.733C31.8097 343.181 31.3486 345.638 30.935 348.06C26.895 371.73 20.945 395.26 14.305 418.53C14.2371 418.764 14.1119 418.977 13.9407 419.15C13.7696 419.322 13.5579 419.45 13.325 419.52L1.72 425.07C1.66571 425.14 1.55989 425.252 1.4341 425.386C1.09479 425.748 0.610222 426.264 0.600006 426.5L0 440.98C0.335034 441.24 0.216224 441.202 0.115818 441.171C0.0693828 441.156 0.0268836 441.142 0.0350342 441.16C0.0608086 441.216 0.0995421 441.265 0.147858 441.303C0.196173 441.34 0.252625 441.365 0.312256 441.375C0.371887 441.385 0.432898 441.38 0.48999 441.36C21.3205 430.633 37.684 425.845 56.725 420.274C63.7768 418.211 71.1958 416.04 79.345 413.42C81.875 412.61 83.9151 412.63 86.3051 413.37C93.5275 415.608 101.236 418.186 108.89 420.746C115.256 422.875 121.585 424.992 127.565 426.89C135.955 429.555 141.754 431.544 147.669 433.573C153.161 435.456 158.754 437.374 166.615 439.9C166.661 439.916 166.711 439.921 166.759 439.914C166.808 439.907 166.854 439.888 166.894 439.86C166.934 439.832 166.967 439.794 166.99 439.751C167.012 439.708 167.024 439.659 167.025 439.61L167.035 425.07C167.035 425.07 166.888 424.534 166.575 424.44L152.955 419.86C152.725 419.793 152.515 419.669 152.344 419.499C152.173 419.33 152.046 419.121 151.975 418.89C143.275 390.77 138.055 367.39 131.775 332.99C129.026 317.932 126.835 302.676 124.65 287.46C124.236 284.578 123.822 281.698 123.405 278.82C122.818 274.753 122.275 269.937 121.775 264.37C121.342 259.53 120.835 254.7 120.255 249.88C119.122 240.513 118.142 231.137 117.315 221.75C117.301 221.606 117.335 221.462 117.41 221.339C117.486 221.216 117.6 221.122 117.735 221.07L139.465 212.5C139.551 212.466 139.627 212.411 139.688 212.341C139.748 212.271 139.791 212.187 139.813 212.097C139.834 212.007 139.834 211.913 139.812 211.823C139.789 211.733 139.746 211.65 139.685 211.58C139.472 211.347 139.168 211.153 138.775 211C120.255 203.94 101.735 196.967 83.215 190.08C82.855 189.947 82.495 189.947 82.135 190.08L24.495 211.56C23.755 211.84 23.7517 212.127 24.485 212.42Z"
        fill="#f1f5f9" />
</svg>