<svg
  width="37"
  height="41"
  viewBox="0 0 37 41"
  fill="none"
  xmlns="http://www.w3.org/2000/svg"
>
  <path
    d="M24.5863 40.8585L12.4024 40.9332V37.6319L12.2037 37.5702V36.9684H12.6671C12.723 36.8255 12.7776 36.6832 12.8314 36.5403L12.2037 36.344V35.7422H13.1237C14.0134 33.2449 14.7138 30.6034 15.264 27.9353L14.8424 27.7088V27.107H15.429C17.9283 14.2709 17.0736 7.04149 17.2656 6.70824V6.39046H17.0191V5.88888H17.2656V5.72166H17.0191V5.22007H17.2831L18.063 4.45105H18.4139V3.95535H18.1613V3.70988H18.4139V3.4905H18.1613V3.24622H18.4139V3.02743H18.1613V2.78197H18.4139V2.56259H18.1613V2.31712H18.4139V0.0776755C18.4139 0.034985 18.4542 0 18.5028 0C18.5512 0 18.5916 0.0343922 18.5916 0.0776755V2.31712H18.8449V2.56199H18.5916V2.78137H18.8449V3.02625H18.5916V3.24563H18.8449V3.4905H18.5916V3.70988H18.8449V3.95357H18.5916V4.44924H18.8604L19.6409 5.21825H19.9049V5.71984H19.6585V5.88706H19.9049V6.38865H19.6585V6.70649C19.8497 7.04031 19.0146 14.2692 21.526 27.1052H22.1133V27.796L21.7065 27.9981C22.258 30.6443 22.9571 33.2632 23.8407 35.7404H24.6859V36.4312L24.1519 36.5859C24.1997 36.7129 24.2489 36.8397 24.298 36.9666H24.6859V37.6568L24.5863 37.6852V40.8585ZM15.887 35.7404H21.0512C20.8236 35.6065 19.8362 29.9578 19.8362 29.9578H17.0642C17.0642 31.2284 15.887 35.7404 15.887 35.7404Z"
    fill="#e2e8f0"
  />
  <path
    d="M0 19.4994V18.6237C0 18.304 0.20155 18.0121 0.604655 17.748L8.94474 12.1185C9.0142 12.0768 9.0976 12.0559 9.19495 12.0559C9.3061 12.0559 9.40345 12.0976 9.48685 12.181C9.57025 12.2644 9.61195 12.3687 9.61195 12.4938V15.8715C9.61195 16.219 9.3895 16.5248 8.94474 16.7889L5.29596 19.0616L8.94474 21.3551C9.08372 21.4385 9.181 21.501 9.23665 21.5427C9.3061 21.5844 9.3826 21.6748 9.466 21.8138C9.56328 21.9389 9.61195 22.0848 9.61195 22.2516V25.6293C9.61195 25.7544 9.57025 25.8587 9.48685 25.9421C9.40345 26.0255 9.3061 26.0672 9.19495 26.0672C9.0976 26.0672 9.0142 26.0463 8.94474 26.0046L0.604655 20.3751C0.20155 20.111 0 19.8191 0 19.4994Z"
    fill="#e2e8f0"
  />
  <path
    d="M36.9541 18.6237V19.4994C36.9541 19.8191 36.7526 20.111 36.3495 20.3751L28.0094 26.0046C27.9399 26.0463 27.8496 26.0672 27.7383 26.0672C27.6411 26.0672 27.5507 26.0255 27.4673 25.9421C27.3839 25.8587 27.3422 25.7544 27.3422 25.6293V22.2516C27.3422 22.0848 27.3839 21.9389 27.4673 21.8138C27.5646 21.6748 27.6411 21.5844 27.6966 21.5427C27.7662 21.501 27.8704 21.4385 28.0094 21.3551L31.6582 19.0616L28.0094 16.7889C27.5646 16.5248 27.3422 16.219 27.3422 15.8715V12.4938C27.3422 12.3687 27.3839 12.2644 27.4673 12.181C27.5507 12.0976 27.6411 12.0559 27.7383 12.0559C27.8496 12.0559 27.9399 12.0768 28.0094 12.1185L36.3495 17.748C36.7526 18.0121 36.9541 18.304 36.9541 18.6237Z"
    fill="#e2e8f0"
  />
</svg>